# xmcd
#
# Track frame offsets:
#	150
#	17239
#	32369
#	51649
#	77967
#	101547
#	118451
#	145625
#	160891
#	184593
#	221362
#
# Disc length: 3551 seconds
#
# Revision: 0
# Processed by: cddbd v1.5.2PL0 Copyright (c) Steve Scherf et al.
# Submitted via: EZCDAudioConverter 1.0.4.1
#
DISCID=950ddd0b
DTITLE=Strachy na Lachy - Piła tango
DYEAR=2005
DGENRE=Folk-Rock
TTITLE0=Strachy na lachy
TTITLE1=Dzień dobry, kocham Cię
TTITLE2=Jedna taka szansa na 100
TTITLE3=Moralne salto
TTITLE4=Niecodzienny szczon
TTITLE5=Co się stało z Magdą K.?
TTITLE6=Piła tango
TTITLE7=Czarny chleb i czarna kawa
TTITLE8=List do Che
TTITLE9=Zimne dziady listopady
TTITLE10=Pogrzeb króla
EXTD=
EXTT0=
EXTT1=
EXTT2=
EXTT3=
EXTT4=
EXTT5=
EXTT6=
EXTT7=
EXTT8=
EXTT9=
EXTT10=
PLAYORDER=
